<svg width="253" height="84" viewBox="0 0 253 84" fill="none" xmlns="http://www.w3.org/2000/svg">
<path d="M0.783 18.272H11.745L11.832 72.734H18.792L18.705 83H0.783V18.272ZM32.678 61.859L31.373 37.238L30.068 61.859H32.678ZM33.809 83L33.2 71.342H29.459L28.85 83H19.367L24.761 18.272H38.681L44.51 83H33.809ZM45.1326 83V18.272H61.8366C66.2736 18.272 69.1446 20.621 69.1446 26.45V41.066C69.1446 45.416 66.2736 47.417 64.8816 47.852C66.7086 48.374 70.0146 50.201 70.0146 55.421V73.169C70.0146 79.607 67.1436 83 61.7496 83H45.1326ZM56.9646 26.45H56.1816V44.894H56.9646C57.9216 44.894 58.2696 44.372 58.2696 43.241V28.016C58.2696 26.885 58.0956 26.45 56.9646 26.45ZM57.2256 52.898H56.1816V74.561H57.2256C58.3566 74.561 58.5306 74.039 58.5306 72.908V54.638C58.5306 53.42 58.2696 52.898 57.2256 52.898ZM83.6546 61.859L82.3496 37.238L81.0446 61.859H83.6546ZM84.7856 83L84.1766 71.342H80.4356L79.8266 83H70.3436L75.7376 18.272H89.6576L95.4866 83H84.7856ZM108.125 74.126C109.082 74.126 109.256 73.343 109.256 72.299V53.42H120.044V72.56C120.044 78.389 116.825 83.609 109.082 83.609H107.342C99.0774 83.609 95.6844 79.085 95.6844 71.516V29.408C95.7714 22.622 98.9034 17.663 107.255 17.663H109.082C116.738 17.663 120.044 21.839 120.044 28.19V45.329H109.256V28.538C109.256 27.494 109.082 26.885 108.125 26.885C107.255 26.885 106.994 27.407 106.994 28.538V72.299C106.994 73.43 107.255 74.126 108.125 74.126ZM132.474 83H121.512V18.272H132.474L132.387 41.588L136.041 18.272H147.003L141.696 47.591L147.264 83H135.78L132.387 57.509L132.474 83ZM147.765 83V18.272H163.512C168.297 18.272 172.038 20.708 172.038 27.581V73.169C172.038 79.955 168.471 83 163.686 83H147.765ZM158.553 27.146V73.865H159.597C160.641 73.865 160.902 73.169 160.902 71.69V29.147C160.902 27.842 160.641 27.146 159.597 27.146H158.553ZM198.824 30.452V71.081C198.824 79.172 194.3 83.609 187.166 83.609H185.339C177.77 83.609 173.594 78.998 173.594 71.081V30.452C173.594 22.535 177.161 17.663 185.339 17.663H187.079C195.257 17.663 198.824 22.709 198.824 30.452ZM187.514 72.038V29.234C187.514 28.016 187.166 27.32 186.209 27.32C185.252 27.32 184.991 27.929 184.991 29.234V72.038C184.991 73.169 185.339 73.778 186.209 73.778C187.079 73.778 187.514 73.169 187.514 72.038ZM225.586 30.452V71.081C225.586 79.172 221.062 83.609 213.928 83.609H212.101C204.532 83.609 200.356 78.998 200.356 71.081V30.452C200.356 22.535 203.923 17.663 212.101 17.663H213.841C222.019 17.663 225.586 22.709 225.586 30.452ZM214.276 72.038V29.234C214.276 28.016 213.928 27.32 212.971 27.32C212.014 27.32 211.753 27.929 211.753 29.234V72.038C211.753 73.169 212.101 73.778 212.971 73.778C213.841 73.778 214.276 73.169 214.276 72.038ZM238.168 26.45V45.329H239.038C239.908 45.329 240.256 44.807 240.256 43.85V27.929C240.256 26.885 240.082 26.45 239.125 26.45H238.168ZM238.168 54.551V83H227.119V18.272H244.258C248.086 18.272 251.131 20.708 251.131 26.015V41.24C251.131 45.59 249.043 47.417 247.216 48.2C249.043 48.983 251.305 50.897 251.305 54.203V79.868C251.305 81.086 251.479 82.13 251.827 82.739V83H240.952C240.517 82.478 240.256 81.434 240.256 80.303V56.03C240.256 55.16 240.082 54.551 239.038 54.551H238.168Z" fill="#8B8C89"/>
</svg>
