<svg width="198" height="182" viewBox="0 0 198 182" fill="none" xmlns="http://www.w3.org/2000/svg">
<path fill-rule="evenodd" clip-rule="evenodd" d="M56 0C46.0589 0 38 8.05887 38 18V100C38 109.941 46.0589 118 56 118H137C146.941 118 155 109.941 155 100V18C155 8.05887 146.941 0 137 0H56ZM49 24C49 17.3726 54.3726 12 61 12H132C138.627 12 144 17.3726 144 24V95C144 101.627 138.627 107 132 107H61C54.3726 107 49 101.627 49 95V24Z" fill="black"/>
<path d="M51.6667 20C51.6667 22.9455 54.0545 25.3333 57 25.3333C59.9455 25.3333 62.3333 22.9455 62.3333 20C62.3333 17.0545 59.9455 14.6667 57 14.6667C54.0545 14.6667 51.6667 17.0545 51.6667 20ZM129.667 20C129.667 22.9455 132.054 25.3333 135 25.3333C137.946 25.3333 140.333 22.9455 140.333 20C140.333 17.0545 137.946 14.6667 135 14.6667C132.054 14.6667 129.667 17.0545 129.667 20ZM57 21L135 21L135 19L57 19L57 21Z" fill="black"/>
<path d="M64.6667 25C64.6667 27.9455 67.0545 30.3333 70 30.3333C72.9455 30.3333 75.3333 27.9455 75.3333 25C75.3333 22.0545 72.9455 19.6667 70 19.6667C67.0545 19.6667 64.6667 22.0545 64.6667 25ZM116.667 25C116.667 27.9455 119.054 30.3333 122 30.3333C124.946 30.3333 127.333 27.9455 127.333 25C127.333 22.0545 124.946 19.6667 122 19.6667C119.054 19.6667 116.667 22.0545 116.667 25ZM70 26L122 26L122 24L70 24L70 26Z" fill="black"/>
<path d="M64.6667 37C64.6667 39.9455 67.0545 42.3333 70 42.3333C72.9455 42.3333 75.3333 39.9455 75.3333 37C75.3333 34.0545 72.9455 31.6667 70 31.6667C67.0545 31.6667 64.6667 34.0545 64.6667 37ZM116.667 37C116.667 39.9455 119.054 42.3333 122 42.3333C124.946 42.3333 127.333 39.9455 127.333 37C127.333 34.0545 124.946 31.6667 122 31.6667C119.054 31.6667 116.667 34.0545 116.667 37ZM70 38L122 38L122 36L70 36L70 38Z" fill="black"/>
<path d="M64.6667 48C64.6667 50.9455 67.0545 53.3333 70 53.3333C72.9455 53.3333 75.3333 50.9455 75.3333 48C75.3333 45.0545 72.9455 42.6667 70 42.6667C67.0545 42.6667 64.6667 45.0545 64.6667 48ZM116.667 48C116.667 50.9455 119.054 53.3333 122 53.3333C124.946 53.3333 127.333 50.9455 127.333 48C127.333 45.0545 124.946 42.6667 122 42.6667C119.054 42.6667 116.667 45.0545 116.667 48ZM70 49L122 49L122 47L70 47L70 49Z" fill="black"/>
<path d="M64.6667 58C64.6667 60.9455 67.0545 63.3333 70 63.3333C72.9455 63.3333 75.3333 60.9455 75.3333 58C75.3333 55.0545 72.9455 52.6667 70 52.6667C67.0545 52.6667 64.6667 55.0545 64.6667 58ZM116.667 58C116.667 60.9455 119.054 63.3333 122 63.3333C124.946 63.3333 127.333 60.9455 127.333 58C127.333 55.0545 124.946 52.6667 122 52.6667C119.054 52.6667 116.667 55.0545 116.667 58ZM70 59L122 59L122 57L70 57L70 59Z" fill="black"/>
<path d="M64.6667 70C64.6667 72.9455 67.0545 75.3333 70 75.3333C72.9455 75.3333 75.3333 72.9455 75.3333 70C75.3333 67.0545 72.9455 64.6667 70 64.6667C67.0545 64.6667 64.6667 67.0545 64.6667 70ZM116.667 70C116.667 72.9455 119.054 75.3333 122 75.3333C124.946 75.3333 127.333 72.9455 127.333 70C127.333 67.0545 124.946 64.6667 122 64.6667C119.054 64.6667 116.667 67.0545 116.667 70ZM70 71L122 71L122 69L70 69L70 71Z" fill="black"/>
<path d="M64.6667 81C64.6667 83.9455 67.0545 86.3333 70 86.3333C72.9455 86.3333 75.3333 83.9455 75.3333 81C75.3333 78.0545 72.9455 75.6667 70 75.6667C67.0545 75.6667 64.6667 78.0545 64.6667 81ZM116.667 81C116.667 83.9455 119.054 86.3333 122 86.3333C124.946 86.3333 127.333 83.9455 127.333 81C127.333 78.0545 124.946 75.6667 122 75.6667C119.054 75.6667 116.667 78.0545 116.667 81ZM70 82L122 82L122 80L70 80L70 82Z" fill="black"/>
<path d="M64.6667 93C64.6667 95.9455 67.0545 98.3333 70 98.3333C72.9455 98.3333 75.3333 95.9455 75.3333 93C75.3333 90.0545 72.9455 87.6667 70 87.6667C67.0545 87.6667 64.6667 90.0545 64.6667 93ZM116.667 93C116.667 95.9455 119.054 98.3333 122 98.3333C124.946 98.3333 127.333 95.9455 127.333 93C127.333 90.0545 124.946 87.6667 122 87.6667C119.054 87.6667 116.667 90.0545 116.667 93ZM70 94L122 94L122 92L70 92L70 94Z" fill="black"/>
<path d="M51.6667 31C51.6667 33.9455 54.0545 36.3333 57 36.3333C59.9455 36.3333 62.3333 33.9455 62.3333 31C62.3333 28.0545 59.9455 25.6667 57 25.6667C54.0545 25.6667 51.6667 28.0545 51.6667 31ZM129.667 31C129.667 33.9455 132.054 36.3333 135 36.3333C137.946 36.3333 140.333 33.9455 140.333 31C140.333 28.0545 137.946 25.6667 135 25.6667C132.054 25.6667 129.667 28.0545 129.667 31ZM57 32L135 32L135 30L57 30L57 32Z" fill="black"/>
<path d="M51.6667 42C51.6667 44.9455 54.0545 47.3333 57 47.3333C59.9455 47.3333 62.3333 44.9455 62.3333 42C62.3333 39.0545 59.9455 36.6667 57 36.6667C54.0545 36.6667 51.6667 39.0545 51.6667 42ZM129.667 42C129.667 44.9455 132.054 47.3333 135 47.3333C137.946 47.3333 140.333 44.9455 140.333 42C140.333 39.0545 137.946 36.6667 135 36.6667C132.054 36.6667 129.667 39.0545 129.667 42ZM57 43L135 43L135 41L57 41L57 43Z" fill="black"/>
<path d="M51.6667 53C51.6667 55.9455 54.0545 58.3333 57 58.3333C59.9455 58.3333 62.3333 55.9455 62.3333 53C62.3333 50.0545 59.9455 47.6667 57 47.6667C54.0545 47.6667 51.6667 50.0545 51.6667 53ZM129.667 53C129.667 55.9455 132.054 58.3333 135 58.3333C137.946 58.3333 140.333 55.9455 140.333 53C140.333 50.0545 137.946 47.6667 135 47.6667C132.054 47.6667 129.667 50.0545 129.667 53ZM57 54L135 54L135 52L57 52L57 54Z" fill="black"/>
<path d="M51.6667 63C51.6667 65.9455 54.0545 68.3333 57 68.3333C59.9455 68.3333 62.3333 65.9455 62.3333 63C62.3333 60.0545 59.9455 57.6667 57 57.6667C54.0545 57.6667 51.6667 60.0545 51.6667 63ZM129.667 63C129.667 65.9455 132.054 68.3333 135 68.3333C137.946 68.3333 140.333 65.9455 140.333 63C140.333 60.0545 137.946 57.6667 135 57.6667C132.054 57.6667 129.667 60.0545 129.667 63ZM57 64L135 64L135 62L57 62L57 64Z" fill="black"/>
<path d="M51.6667 76C51.6667 78.9455 54.0545 81.3333 57 81.3333C59.9455 81.3333 62.3333 78.9455 62.3333 76C62.3333 73.0545 59.9455 70.6667 57 70.6667C54.0545 70.6667 51.6667 73.0545 51.6667 76ZM129.667 76C129.667 78.9455 132.054 81.3333 135 81.3333C137.946 81.3333 140.333 78.9455 140.333 76C140.333 73.0545 137.946 70.6667 135 70.6667C132.054 70.6667 129.667 73.0545 129.667 76ZM57 77L135 77L135 75L57 75L57 77Z" fill="black"/>
<path d="M51.6667 87C51.6667 89.9455 54.0545 92.3333 57 92.3333C59.9455 92.3333 62.3333 89.9455 62.3333 87C62.3333 84.0545 59.9455 81.6667 57 81.6667C54.0545 81.6667 51.6667 84.0545 51.6667 87ZM129.667 87C129.667 89.9455 132.054 92.3333 135 92.3333C137.946 92.3333 140.333 89.9455 140.333 87C140.333 84.0545 137.946 81.6667 135 81.6667C132.054 81.6667 129.667 84.0545 129.667 87ZM57 88L135 88L135 86L57 86L57 88Z" fill="black"/>
<path d="M51.6667 98C51.6667 100.946 54.0545 103.333 57 103.333C59.9455 103.333 62.3333 100.946 62.3333 98C62.3333 95.0545 59.9455 92.6667 57 92.6667C54.0545 92.6667 51.6667 95.0545 51.6667 98ZM129.667 98C129.667 100.946 132.054 103.333 135 103.333C137.946 103.333 140.333 100.946 140.333 98C140.333 95.0545 137.946 92.6667 135 92.6667C132.054 92.6667 129.667 95.0545 129.667 98ZM57 99L135 99L135 97L57 97L57 99Z" fill="black"/>
<path fill-rule="evenodd" clip-rule="evenodd" d="M80 9V110L112.431 82.6988L113 32.4491L80 9ZM87.5 69C88.8807 69 90 67.8807 90 66.5C90 65.1193 88.8807 64 87.5 64C86.1193 64 85 65.1193 85 66.5C85 67.8807 86.1193 69 87.5 69Z" fill="black"/>
<path d="M21.666 181V125.944H35.874C39.648 125.944 42.09 127.942 42.09 132.9V145.332C42.09 149.032 39.648 150.734 38.464 151.104C40.018 151.548 42.83 153.102 42.83 157.542V172.638C42.83 178.114 40.388 181 35.8 181H21.666ZM31.73 132.9H31.064V148.588H31.73C32.544 148.588 32.84 148.144 32.84 147.182V134.232C32.84 133.27 32.692 132.9 31.73 132.9ZM31.952 155.396H31.064V173.822H31.952C32.914 173.822 33.062 173.378 33.062 172.416V156.876C33.062 155.84 32.84 155.396 31.952 155.396Z" fill="black"/>
<path d="M54.4318 163.018L53.3218 142.076L52.2118 163.018H54.4318ZM55.3938 181L54.8758 171.084H51.6938L51.1758 181H43.1098L47.6978 125.944H59.5378L64.4958 181H55.3938Z" fill="black"/>
<path d="M75.2461 173.452C76.0601 173.452 76.2081 172.786 76.2081 171.898V155.84H85.3841V172.12C85.3841 177.078 82.6461 181.518 76.0601 181.518H74.5801C67.5501 181.518 64.6641 177.67 64.6641 171.232V135.416C64.7381 129.644 67.4021 125.426 74.5061 125.426H76.0601C82.5721 125.426 85.3841 128.978 85.3841 134.38V148.958H76.2081V134.676C76.2081 133.788 76.0601 133.27 75.2461 133.27C74.5061 133.27 74.2841 133.714 74.2841 134.676V171.898C74.2841 172.86 74.5061 173.452 75.2461 173.452Z" fill="black"/>
<path d="M95.9568 181H86.6328V125.944H95.9568L95.8828 145.776L98.9908 125.944H108.315L103.801 150.882L108.537 181H98.7688L95.8828 159.318L95.9568 181Z" fill="black"/>
<path d="M108.963 181V125.944H122.357C126.427 125.944 129.609 128.016 129.609 133.862V172.638C129.609 178.41 126.575 181 122.505 181H108.963ZM118.139 133.492V173.23H119.027C119.915 173.23 120.137 172.638 120.137 171.38V135.194C120.137 134.084 119.915 133.492 119.027 133.492H118.139Z" fill="black"/>
<path d="M152.392 136.304V170.862C152.392 177.744 148.544 181.518 142.476 181.518H140.922C134.484 181.518 130.932 177.596 130.932 170.862V136.304C130.932 129.57 133.966 125.426 140.922 125.426H142.402C149.358 125.426 152.392 129.718 152.392 136.304ZM142.772 171.676V135.268C142.772 134.232 142.476 133.64 141.662 133.64C140.848 133.64 140.626 134.158 140.626 135.268V171.676C140.626 172.638 140.922 173.156 141.662 173.156C142.402 173.156 142.772 172.638 142.772 171.676Z" fill="black"/>
<path d="M175.155 136.304V170.862C175.155 177.744 171.307 181.518 165.239 181.518H163.685C157.247 181.518 153.695 177.596 153.695 170.862V136.304C153.695 129.57 156.729 125.426 163.685 125.426H165.165C172.121 125.426 175.155 129.718 175.155 136.304ZM165.535 171.676V135.268C165.535 134.232 165.239 133.64 164.425 133.64C163.611 133.64 163.389 134.158 163.389 135.268V171.676C163.389 172.638 163.685 173.156 164.425 173.156C165.165 173.156 165.535 172.638 165.535 171.676Z" fill="black"/>
<path d="M185.857 132.9V148.958H186.597C187.337 148.958 187.633 148.514 187.633 147.7V134.158C187.633 133.27 187.485 132.9 186.671 132.9H185.857ZM185.857 156.802V181H176.459V125.944H191.037C194.293 125.944 196.883 128.016 196.883 132.53V145.48C196.883 149.18 195.107 150.734 193.553 151.4C195.107 152.066 197.031 153.694 197.031 156.506V178.336C197.031 179.372 197.179 180.26 197.475 180.778V181H188.225C187.855 180.556 187.633 179.668 187.633 178.706V158.06C187.633 157.32 187.485 156.802 186.597 156.802H185.857Z" fill="black"/>
<path d="M0.36 139.24H5.4L5.44 164.28H8.64L8.6 169H0.36V139.24ZM15.0244 159.28L14.4244 147.96L13.8244 159.28H15.0244ZM15.5444 169L15.2644 163.64H13.5444L13.2644 169H8.90437L11.3844 139.24H17.7844L20.4644 169H15.5444Z" fill="black"/>
</svg>
