<svg width="658" height="824" viewBox="0 0 658 824" fill="none" xmlns="http://www.w3.org/2000/svg">
<path fill-rule="evenodd" clip-rule="evenodd" d="M208.936 352.757C214.788 354.8 218.81 357.186 226.013 362.892C237.763 372.198 248.75 382.585 250.601 386.135C252.739 390.235 252.31 396.529 249.049 408.904L248.644 410.441C247.056 416.47 248.7 422.892 252.991 427.416L270.395 445.763C283.764 459.856 302.838 479.995 312.783 490.516C330.282 509.029 331.111 509.748 338.494 512.859C356.308 520.363 369.234 529.662 406.793 561.994C433.267 584.784 441.546 594.352 449.36 611.192C455.554 624.539 457.183 631.868 457.421 647.484L457.524 654.23C457.595 658.886 459.467 663.333 462.748 666.637L466.575 670.492C480.764 684.782 494.084 690.67 510.161 689.757C520.495 689.17 526.173 686.942 532.783 680.875C538.402 675.717 541.053 670.845 542.401 663.195C543.817 655.156 545.091 652.401 548.947 649.03C553.043 645.449 557.684 644.449 563.264 645.945C575.446 649.211 580.846 662.828 576.526 679.389C571.294 699.45 556.988 714.603 536.568 721.713C529.385 724.215 527.498 724.437 513.184 724.467C499.842 724.494 496.464 724.168 489.578 722.188C475.264 718.072 457.406 708.617 447.366 699.84L447.266 699.753C446.358 698.959 444.988 699.89 445.391 701.027V701.027C447.386 706.657 447.282 713.521 445.147 717.119C444.191 718.731 441.165 721.163 438.421 722.525L437.213 723.124C434.727 724.357 431.988 724.999 429.213 724.999L372.606 724.993C331.551 724.99 310.488 724.631 307.808 723.89C302.514 722.427 297.563 717.37 296.643 712.485C294.426 700.717 310.598 690.014 330.659 689.973L334.549 689.965C336.097 689.962 336.677 687.935 335.364 687.114V687.114C325.64 681.031 315.638 666.783 312.347 654.325C311.32 650.436 310.122 649.364 294.111 637.978C284.687 631.276 276.827 625.947 276.646 626.136C276.465 626.325 273.811 641.333 270.749 659.487C260.959 717.531 259.903 720.673 248.155 726.722L245.666 728.004C243.118 729.316 240.294 730 237.427 730H225.516C210.619 730 208.867 729.81 204.818 727.75C198.381 724.474 196.246 721.062 196.321 714.171C196.39 708.007 198.867 702.077 202.942 698.321C204.239 697.127 208.69 694.813 212.834 693.182V693.182C217.384 691.391 220.387 687.011 220.417 682.12L220.63 647.8L220.844 613.041C220.873 608.25 218.538 603.752 214.603 601.019V601.019C189.064 583.288 170.603 560.949 163.172 538.788L161.532 533.893C160.914 532.05 160.599 530.118 160.599 528.173V490.636V458.818C160.599 453.347 158.11 448.172 153.836 444.757L148.576 440.552C141.964 435.267 136.069 430.943 135.478 430.943C134.885 430.943 132.629 431.844 130.463 432.944C122.267 437.107 115.777 435.097 105.134 425.1C92.3798 413.121 87.752 398.973 93.3321 389.025C97.9911 380.719 98.7565 380.476 121.342 380.127L133.861 379.933C138.572 379.861 143.066 377.944 146.38 374.594L152.334 368.575C167.529 353.214 174.938 349.834 193.044 350.006C199.242 350.065 203.177 350.746 208.936 352.757Z" fill="#C2A87A"/>
<mask id="path-2-inside-1_114_210" fill="white">
<path fill-rule="evenodd" clip-rule="evenodd" d="M434 18C434 8.05887 425.941 0 416 0H18C8.05888 0 0 8.05888 0 18V712C0 721.941 8.05888 730 18 730H34C43.9411 730 52 721.941 52 712V87C52 77.0589 60.0589 69 70 69H363C372.941 69 381 77.0589 381 87V712C381 721.941 389.059 730 399 730H416C425.941 730 434 721.941 434 712V18Z"/>
</mask>
<path fill-rule="evenodd" clip-rule="evenodd" d="M434 18C434 8.05887 425.941 0 416 0H18C8.05888 0 0 8.05888 0 18V712C0 721.941 8.05888 730 18 730H34C43.9411 730 52 721.941 52 712V87C52 77.0589 60.0589 69 70 69H363C372.941 69 381 77.0589 381 87V712C381 721.941 389.059 730 399 730H416C425.941 730 434 721.941 434 712V18Z" fill="#FFFFF0"/>
<path d="M18 15H416V-15H18V15ZM15 712V18H-15V712H15ZM34 715H18V745H34V715ZM67 712V87H37V712H67ZM70 84H363V54H70V84ZM366 87V712H396V87H366ZM416 715H399V745H416V715ZM419 18V712H449V18H419ZM416 745C434.225 745 449 730.225 449 712H419C419 713.657 417.657 715 416 715V745ZM366 712C366 730.225 380.775 745 399 745V715C397.343 715 396 713.657 396 712H366ZM363 84C364.657 84 366 85.3431 366 87H396C396 68.7746 381.225 54 363 54V84ZM67 87C67 85.3431 68.3431 84 70 84V54C51.7746 54 37 68.7746 37 87H67ZM34 745C52.2254 745 67 730.225 67 712H37C37 713.657 35.6569 715 34 715V745ZM-15 712C-15 730.225 -0.225396 745 18 745V715C16.3431 715 15 713.657 15 712H-15ZM416 15C417.657 15 419 16.3431 419 18H449C449 -0.22539 434.225 -15 416 -15V15ZM18 -15C-0.225406 -15 -15 -0.225377 -15 18H15C15 16.3431 16.3432 15 18 15V-15Z" fill="black" mask="url(#path-2-inside-1_114_210)"/>
<path d="M636.566 808.646L395.566 725.244C391.337 723.78 388.5 719.797 388.5 715.321V70.6529C388.5 65.4941 392.248 61.0994 397.342 60.2847L638.342 21.7394C644.721 20.7191 650.5 25.6471 650.5 32.1077V798.723C650.5 805.941 643.387 811.006 636.566 808.646Z" fill="#FFFFF0" stroke="black" stroke-width="15"/>
<circle cx="577.5" cy="417.5" r="28.5" fill="#FFFFF0" stroke="black" stroke-width="12"/>
<line x1="532.685" y1="452.528" x2="569.154" y2="426.166" stroke="black" stroke-width="15" stroke-linecap="round"/>
</svg>
