<svg width="572" height="717" viewBox="0 0 572 717" fill="none" xmlns="http://www.w3.org/2000/svg">
<path fill-rule="evenodd" clip-rule="evenodd" d="M181.627 306.652C186.715 308.428 190.211 310.502 196.472 315.462C206.686 323.552 216.238 332.582 217.847 335.667C219.705 339.231 219.333 344.703 216.498 355.461V355.461C214.91 361.49 216.536 367.98 220.827 372.504L235.054 387.502C246.675 399.753 263.257 417.26 271.902 426.406C287.113 442.499 287.834 443.125 294.252 445.829C309.738 452.352 320.975 460.436 353.625 488.542C376.639 508.353 383.836 516.671 390.629 531.309C396.013 542.912 397.428 549.284 397.635 562.859L397.71 567.774C397.782 572.43 399.654 576.877 402.935 580.182L405.593 582.859C417.927 595.282 429.506 600.4 443.482 599.607C452.466 599.096 457.402 597.159 463.148 591.885C468.032 587.401 470.337 583.166 471.509 576.516C472.74 569.528 473.847 567.133 477.2 564.202C480.76 561.089 484.794 560.22 489.645 561.521C500.234 564.359 504.929 576.197 501.174 590.594C496.625 608.033 484.19 621.205 466.438 627.386C460.194 629.561 458.554 629.754 446.111 629.78C434.513 629.803 431.576 629.52 425.59 627.798C413.147 624.22 397.622 616.001 388.895 608.372L388.808 608.296C388.019 607.606 386.827 608.415 387.178 609.403V609.403C388.912 614.297 388.822 620.264 386.966 623.392C386.135 624.793 383.504 626.908 381.119 628.091L380.563 628.367C378.077 629.6 375.338 630.242 372.563 630.242L323.906 630.237C288.216 630.234 269.906 629.922 267.577 629.278C262.975 628.006 258.671 623.61 257.871 619.364C255.944 609.134 270.003 599.83 287.441 599.794L290.822 599.788C292.169 599.785 292.672 598.022 291.531 597.309V597.309C283.078 592.021 274.384 579.635 271.523 568.805C270.63 565.424 269.589 564.492 255.67 554.594C247.478 548.769 240.645 544.137 240.487 544.301C240.33 544.465 238.023 557.511 235.362 573.292C226.851 623.75 225.933 626.482 215.721 631.74L214.064 632.593C211.516 633.905 208.691 634.59 205.825 634.59H196.04C183.09 634.59 181.567 634.424 178.047 632.633C172.452 629.786 170.596 626.82 170.661 620.829C170.721 615.471 172.874 610.316 176.417 607.051C177.544 606.013 181.414 604.002 185.016 602.584V602.584C188.972 601.027 191.582 597.219 191.608 592.968L191.793 563.133L191.979 532.917C192.004 528.752 189.975 524.842 186.553 522.466V522.466C164.352 507.053 148.304 487.633 141.845 468.369L140.541 464.478C139.923 462.634 139.608 460.702 139.608 458.758V426.51V399.982C139.608 394.511 137.119 389.337 132.845 385.921L129.156 382.972C123.408 378.378 118.284 374.619 117.77 374.619C117.255 374.619 115.294 375.402 113.411 376.358C106.286 379.977 100.644 378.23 91.3924 369.54C80.305 359.126 76.282 346.828 81.1328 338.179C85.1829 330.959 85.8483 330.748 105.482 330.445L115.404 330.291C120.115 330.218 124.609 328.302 127.923 324.952L132.424 320.402C145.632 307.049 152.073 304.111 167.812 304.261C173.201 304.312 176.621 304.904 181.627 306.652Z" fill="#6096BA"/>
<mask id="path-2-inside-1_114_219" fill="white">
<path fill-rule="evenodd" clip-rule="evenodd" d="M377.277 18C377.277 8.05888 369.218 0 359.277 0H18C8.05887 0 0 8.05887 0 18V616.59C0 626.531 8.05887 634.59 18 634.59H27.2031C37.1442 634.59 45.2031 626.531 45.2031 616.59V77.9818C45.2031 68.0407 53.262 59.9818 63.2031 59.9818H313.203C323.144 59.9818 331.203 68.0407 331.203 77.9818V616.59C331.203 626.531 339.262 634.59 349.203 634.59H359.277C369.218 634.59 377.277 626.531 377.277 616.59V18Z"/>
</mask>
<path fill-rule="evenodd" clip-rule="evenodd" d="M377.277 18C377.277 8.05888 369.218 0 359.277 0H18C8.05887 0 0 8.05887 0 18V616.59C0 626.531 8.05887 634.59 18 634.59H27.2031C37.1442 634.59 45.2031 626.531 45.2031 616.59V77.9818C45.2031 68.0407 53.262 59.9818 63.2031 59.9818H313.203C323.144 59.9818 331.203 68.0407 331.203 77.9818V616.59C331.203 626.531 339.262 634.59 349.203 634.59H359.277C369.218 634.59 377.277 626.531 377.277 616.59V18Z" fill="#8B8C89"/>
<path d="M18 15H359.277V-15H18V15ZM15 616.59V18H-15V616.59H15ZM27.2031 619.59H18V649.59H27.2031V619.59ZM60.2031 616.59V77.9818H30.2031V616.59H60.2031ZM63.2031 74.9818H313.203V44.9818H63.2031V74.9818ZM316.203 77.9818V616.59H346.203V77.9818H316.203ZM359.277 619.59H349.203V649.59H359.277V619.59ZM362.277 18V616.59H392.277V18H362.277ZM359.277 649.59C377.502 649.59 392.277 634.815 392.277 616.59H362.277C362.277 618.247 360.933 619.59 359.277 619.59V649.59ZM316.203 616.59C316.203 634.815 330.978 649.59 349.203 649.59V619.59C347.546 619.59 346.203 618.247 346.203 616.59H316.203ZM313.203 74.9818C314.86 74.9818 316.203 76.3249 316.203 77.9818H346.203C346.203 59.7564 331.429 44.9818 313.203 44.9818V74.9818ZM60.2031 77.9818C60.2031 76.3249 61.5463 74.9818 63.2031 74.9818V44.9818C44.9777 44.9818 30.2031 59.7564 30.2031 77.9818H60.2031ZM27.2031 649.59C45.4285 649.59 60.2031 634.815 60.2031 616.59H30.2031C30.2031 618.247 28.86 619.59 27.2031 619.59V649.59ZM-15 616.59C-15 634.815 -0.225399 649.59 18 649.59V619.59C16.3431 619.59 15 618.247 15 616.59H-15ZM359.277 15C360.933 15 362.277 16.3431 362.277 18H392.277C392.277 -0.225398 377.502 -15 359.277 -15V15ZM18 -15C-0.225391 -15 -15 -0.225408 -15 18H15C15 16.3431 16.3431 15 18 15V-15Z" fill="black" mask="url(#path-2-inside-1_114_219)"/>
<path d="M550.566 700.95L345.769 630.077C341.54 628.613 338.703 624.63 338.703 620.154V63.4249C338.703 58.2661 342.451 53.8715 347.545 53.0567L552.341 20.3018C558.721 19.2815 564.499 24.2095 564.499 30.67V691.027C564.499 698.245 557.386 703.31 550.566 700.95Z" fill="#8B8C89" stroke="black" stroke-width="15"/>
<circle cx="502.02" cy="362.933" r="23.9909" fill="#8B8C89" stroke="black" stroke-width="12"/>
<line x1="463.284" y1="392.014" x2="493.399" y2="370.246" stroke="black" stroke-width="15" stroke-linecap="round"/>
</svg>
